<?xml version="1.0" standalone="no"?>
<!DOCTYPE svg PUBLIC "-//W3C//DTD SVG 20010904//EN"
 "http://www.w3.org/TR/2001/REC-SVG-20010904/DTD/svg10.dtd">
<svg version="1.0" xmlns="http://www.w3.org/2000/svg"
 width="96.000000pt" height="96.000000pt" viewBox="0 0 96.000000 96.000000"
 preserveAspectRatio="xMidYMid meet">

<g transform="translate(0.000000,96.000000) scale(0.100000,-0.100000)"
fill="#000000" stroke="none">
<path d="M445 681 l-40 -19 33 -1 c29 -1 32 -4 32 -31 0 -28 -3 -30 -35 -30
-31 0 -35 3 -35 26 0 14 -4 23 -10 19 -5 -3 -10 -31 -10 -61 0 -30 5 -54 10
-54 6 0 10 9 10 20 0 16 7 20 35 20 28 0 35 -4 35 -20 0 -11 5 -20 10 -20 6 0
10 9 10 20 0 16 7 20 35 20 28 0 35 -4 35 -20 0 -11 5 -20 10 -20 6 0 10 11
10 24 0 13 7 26 15 30 17 6 21 61 5 71 -6 4 -10 -7 -10 -24 0 -30 -1 -31 -50
-31 l-50 0 0 44 c0 41 2 45 28 49 l27 4 -30 1 c-16 1 -48 -7 -70 -17z"/>
<path d="M150 595 c0 -51 3 -65 15 -65 12 0 15 14 15 65 0 51 -3 65 -15 65
-12 0 -15 -14 -15 -65z"/>
<path d="M97 643 c-4 -3 -7 -30 -7 -60 0 -40 4 -53 15 -53 12 0 15 13 15 60 0
55 -6 70 -23 53z"/>
<path d="M840 570 c0 -29 4 -40 15 -40 11 0 15 11 15 40 0 29 -4 40 -15 40
-11 0 -15 -11 -15 -40z"/>
<path d="M790 575 c-13 -16 -7 -45 10 -45 5 0 10 14 10 30 0 34 -3 36 -20 15z"/>
</g>
</svg>
