<?xml version="1.0" standalone="no"?>
<!DOCTYPE svg PUBLIC "-//W3C//DTD SVG 20010904//EN"
 "http://www.w3.org/TR/2001/REC-SVG-20010904/DTD/svg10.dtd">
<svg version="1.0" xmlns="http://www.w3.org/2000/svg"
 width="96.000000pt" height="96.000000pt" viewBox="0 0 96.000000 96.000000"
 preserveAspectRatio="xMidYMid meet">

<g transform="translate(0.000000,96.000000) scale(0.100000,-0.100000)"
fill="#000000" stroke="none">
<path d="M359 847 c-77 -26 -148 -75 -128 -87 8 -5 25 1 45 17 43 32 142 63
203 63 63 0 145 -25 202 -61 55 -35 81 -39 53 -8 -29 32 -97 69 -156 85 -75
20 -143 17 -219 -9z"/>
<path d="M420 804 c-8 -3 -35 -12 -60 -21 -35 -13 -40 -18 -25 -23 10 -3 35
-1 54 6 46 17 78 17 85 2 5 -10 7 -10 12 0 7 15 39 15 85 -2 19 -7 44 -10 54
-6 15 5 9 10 -26 24 -44 18 -151 30 -179 20z"/>
<path d="M820 631 c0 -27 23 -101 31 -101 12 0 11 20 -2 61 -13 38 -29 60 -29
40z"/>
<path d="M747 605 c-11 -7 -25 -11 -33 -8 -17 6 -17 5 -3 -36 13 -36 30 -42
26 -9 -3 33 29 36 37 4 6 -25 26 -37 26 -16 0 12 -27 80 -32 80 -2 0 -11 -7
-21 -15z"/>
</g>
</svg>
