<?xml version="1.0" standalone="no"?>
<!DOCTYPE svg PUBLIC "-//W3C//DTD SVG 20010904//EN"
 "http://www.w3.org/TR/2001/REC-SVG-20010904/DTD/svg10.dtd">
<svg version="1.0" xmlns="http://www.w3.org/2000/svg"
 width="96.000000pt" height="96.000000pt" viewBox="0 0 96.000000 96.000000"
 preserveAspectRatio="xMidYMid meet">

<g transform="translate(0.000000,96.000000) scale(0.100000,-0.100000)"
fill="#000000" stroke="none">
<path d="M315 881 c-43 -16 -46 -19 -25 -23 14 -2 39 0 55 5 39 11 192 11 230
-1 17 -5 41 -6 55 -2 21 5 17 8 -29 23 -72 23 -218 22 -286 -2z"/>
<path d="M350 754 c-27 -23 -60 -72 -60 -89 0 -16 21 -1 38 29 25 42 61 67
110 77 l37 7 -47 1 c-37 1 -53 -5 -78 -25z"/>
<path d="M387 614 c-11 -12 -8 -234 3 -234 6 0 10 42 10 105 0 98 1 105 20
105 19 0 20 -7 20 -105 0 -65 4 -105 10 -105 7 0 10 42 8 118 l-3 117 -30 3
c-17 2 -34 0 -38 -4z"/>
<path d="M627 614 c-11 -12 -8 -234 3 -234 6 0 10 42 10 105 0 98 1 105 20
105 19 0 20 -7 20 -105 0 -65 4 -105 10 -105 7 0 10 42 8 118 l-3 117 -30 3
c-17 2 -34 0 -38 -4z"/>
<path d="M273 493 c-16 -6 -18 -113 -3 -113 6 0 10 20 10 45 0 38 3 45 20 45
17 0 20 -7 20 -45 0 -25 5 -45 10 -45 6 0 10 24 10 54 0 61 -20 79 -67 59z"/>
<path d="M513 493 c-16 -6 -18 -113 -3 -113 6 0 10 20 10 45 0 38 3 45 20 45
17 0 20 -7 20 -45 0 -25 5 -45 10 -45 6 0 10 24 10 54 0 61 -20 79 -67 59z"/>
<path d="M753 493 c-16 -6 -18 -113 -3 -113 6 0 10 20 10 45 0 38 3 45 20 45
17 0 20 -7 20 -45 0 -25 5 -45 10 -45 6 0 10 24 10 54 0 61 -20 79 -67 59z"/>
<path d="M150 395 c-11 -13 -7 -15 30 -15 37 0 41 2 30 15 -7 8 -20 15 -30 15
-10 0 -23 -7 -30 -15z"/>
<path d="M870 395 c-11 -13 -7 -15 30 -15 37 0 41 2 30 15 -7 8 -20 15 -30 15
-10 0 -23 -7 -30 -15z"/>
</g>
</svg>
